<?xml version="1.0" encoding="utf-8"?>
<!-- Generator: Adobe Illustrator 27.0.0, SVG Export Plug-In . SVG Version: 6.00 Build 0)  -->
<svg version="1.1" id="Layer_1" xmlns="http://www.w3.org/2000/svg" xmlns:xlink="http://www.w3.org/1999/xlink" x="0px" y="0px"
	 viewBox="0 0 1920 1080" style="enable-background:new 0 0 1920 1080;" xml:space="preserve">
<g>
	<path d="M618.97,248.49c-5.38,11.99-11.48,16.91-21.36,15.82c-4.1-0.45-8.38-2.31-11.87-4.6c-18.38-12.02-38.2-20.29-59.92-23.58
		c-39.36-5.95-75.78,1.8-108.94,24.09c-2.35,1.58-4.58,3.33-6.88,4.98c-8.1,5.8-13.9,12.17-15.48,23.3
		c-2.87,20.27-13.09,37.52-27.68,52.02c-0.92,0.92-1.76,1.92-2.91,3.19c5.67,2.66,11.15,4.91,16.33,7.73
		c7.3,3.98,14.53,8.13,21.5,12.65c10.41,6.75,13.17,18.52,7.03,28.15c-6.11,9.58-18.12,12.13-28.46,5.4
		c-15.05-9.8-30.87-17.94-48.41-21.9c-56.68-12.78-106.14,1.22-148.01,41.37c-16.11,15.45-27.42,34.19-34.89,55.26
		c-5.71,16.11,3.22,29.09,20.3,29.11c56.49,0.05,112.97,0.01,169.46,0.03c11.76,0,19.89,6.16,21.88,16.41
		c1.74,9-2.4,16.38-12.69,22.62c-64.67,0-129.33,0-194,0c-1.36-0.55-2.68-1.23-4.08-1.63c-12.98-3.73-23.19-11.36-31.26-22.04
		c-6.36-8.43-9.41-18.22-11.66-28.34c0-4.67,0-9.34,0-14c4.51-19.65,12.56-37.78,23.54-54.62c22.23-34.1,52.46-58.56,89.92-74.24
		c1.66-0.7,3.33-1.37,5.42-2.24c-25.54-25.5-36.82-55.61-31.38-91.05c4.45-28.98,19.39-51.83,43.46-68.43
		c50.77-35,126.1-16.71,151.71,45.21c14.07-7.65,28.17-15.32,42.56-23.14c-26.13-26.1-37.15-57.95-30-95.06
		c4.71-24.43,17.34-44.64,37.19-59.76c42.19-32.14,100.15-27.77,135.63,9c36.91,38.26,41.07,103.67-4.05,146.64
		c1.84,0.88,3.57,1.61,5.21,2.5c10.94,5.96,22.22,11.42,32.63,18.21c4.35,2.84,6.84,8.53,10.17,12.93
		C618.97,243.15,618.97,245.82,618.97,248.49z M295.02,206.41c-34.14-0.01-61.98,27.79-62,61.91
		c-0.02,34.04,27.97,62.05,61.98,62.05c34.04,0,61.96-27.96,61.96-62.04C356.96,234.2,329.19,206.43,295.02,206.41z M563.95,131.44
		c-0.01-34.09-27.9-61.98-61.99-61.97c-34.1,0.01-61.97,27.9-61.96,62c0.01,34.11,27.89,61.98,61.99,61.98
		C536.09,193.43,563.96,165.54,563.95,131.44z"/>
	<path d="M516.97,540.54c-9.77-4.9-13.43-12.89-13.11-23.67c0.44-14.98,0.11-29.98,0.11-44.97c0-1.63,0-3.25,0-5.41
		c-3.71,0-6.99,0-10.27,0c-14.16,0-28.31,0.04-42.47-0.01c-13.09-0.04-22.14-8.21-22.21-19.91c-0.06-11.73,8.98-20.03,22.01-20.07
		c15.65-0.05,31.31-0.01,46.96-0.01c1.8,0,3.59,0,5.98,0c0-2.18,0-3.95,0-5.72c0-15.82-0.04-31.65,0.01-47.47
		c0.05-12.73,8.25-21.67,19.81-21.76c11.81-0.1,20.12,8.87,20.16,21.9c0.05,17.46,0.01,34.93,0.01,53.06c2.09,0,3.85,0,5.61,0
		c14.82,0,29.66,0.38,44.46-0.12c12.4-0.42,20.87,4.2,24.93,16.15c0,2.67,0,5.33,0,8c-4.12,11.87-12.6,16.52-24.95,16.08
		c-13.46-0.48-26.94-0.11-40.41-0.11c-3.1,0-6.2,0-9.64,0c0,17.23-0.31,33.84,0.11,50.44c0.28,10.75-3.31,18.75-13.11,23.61
		C526.3,540.54,521.63,540.54,516.97,540.54z"/>
</g>
</svg>
