<?xml version="1.0" encoding="utf-8"?>
<!-- Generator: Adobe Illustrator 27.0.0, SVG Export Plug-In . SVG Version: 6.00 Build 0)  -->
<svg version="1.1" id="Layer_1" xmlns="http://www.w3.org/2000/svg" xmlns:xlink="http://www.w3.org/1999/xlink" x="0px" y="0px"
	 viewBox="0 0 1920 1080" style="enable-background:new 0 0 1920 1080;" xml:space="preserve">
<g>
	<path d="M227.28,87.38c-0.4,1.43-0.56,3-1.26,4.27c-1.22,2.21-2.49,4.52-4.24,6.29c-22.39,22.53-44.87,44.97-67.36,67.39
		c-0.81,0.81-1.94,1.46-3.04,1.77c-10.29,2.93-20.61,5.78-30.92,8.63c-3.94,1.09-6.37-1.31-5.29-5.23
		c2.84-10.32,5.69-20.63,8.61-30.93c0.31-1.1,0.95-2.24,1.76-3.05c22.46-22.53,44.94-45.04,67.46-67.5c7.3-7.29,17.77-7.23,25.09,0
		c1.28,1.27,2.55,2.55,3.83,3.82c2.74,2.73,4.54,5.94,5.12,9.8c0.03,0.18,0.16,0.35,0.24,0.53
		C227.28,84.57,227.28,85.97,227.28,87.38z M151.36,157.26c18.52-18.52,37.11-37.11,55.56-55.56c-5.89-5.89-11.86-11.86-17.74-17.74
		c-18.47,18.47-37.06,37.06-55.56,55.56C139.49,145.39,145.43,151.33,151.36,157.26z M195.08,77.7
		c6.11,6.11,12.08,12.08,18.11,18.11c1.31-1.38,2.92-2.9,4.33-4.58c2.74-3.29,2.83-8.39,0.05-11.64c-1.94-2.27-4.08-4.41-6.36-6.34
		c-3.22-2.72-8.28-2.61-11.51,0.09C197.98,74.78,196.43,76.42,195.08,77.7z M124.17,166.74c6.74-1.87,13.22-3.67,19.53-5.42
		c-4.75-4.75-9.45-9.44-14.12-14.12C127.82,153.52,126.03,159.99,124.17,166.74z"/>
	<path d="M146.27,216.75c-17.69,0-35.38,0.01-53.07-0.01c-8.37-0.01-14.57-3.71-18.07-11.32c-1.09-2.38-1.71-5.2-1.72-7.82
		c-0.11-33.32-0.11-66.65-0.05-99.97c0.02-10.42,7.97-18.73,18.41-18.98c11.52-0.28,23.05-0.11,34.57-0.09
		c2.34,0,4.03,1.67,4.04,3.78c0.01,2.14-1.78,3.83-4.16,3.83c-11.02,0.02-22.05-0.01-33.07,0.01c-5.94,0.01-10.28,3.25-11.75,8.8
		c-0.31,1.19-0.38,2.48-0.38,3.72C81,131.33,81,163.95,81.01,196.57c0,6.24,3.04,10.54,8.57,12.07c1.19,0.33,2.47,0.46,3.71,0.46
		c35.33,0.02,70.65,0.02,105.98,0.02c6.01,0,10.39-3.17,11.88-8.65c0.35-1.28,0.44-2.67,0.45-4.01c0.03-10.82,0.01-21.65,0.03-32.47
		c0-2.55,1.6-4.25,3.87-4.22c1.91,0.03,3.55,1.53,3.7,3.45c0.07,0.9,0.04,1.8,0.04,2.7c-0.01,10.87,0.11,21.75-0.08,32.62
		c-0.17,9.7-8.31,17.91-18,18.11c-11.17,0.22-22.35,0.09-33.52,0.1C160.5,216.76,153.39,216.75,146.27,216.75z"/>
</g>
</svg>
