<?xml version="1.0" encoding="utf-8"?>
<!-- Generator: Adobe Illustrator 27.0.0, SVG Export Plug-In . SVG Version: 6.00 Build 0)  -->
<svg version="1.1" id="Layer_1" xmlns="http://www.w3.org/2000/svg" xmlns:xlink="http://www.w3.org/1999/xlink" x="0px" y="0px"
	 viewBox="0 0 1920 1080" style="enable-background:new 0 0 1920 1080;" xml:space="preserve">
<g>
	<path d="M132.59,56.72c2.53,0.59,4.99,1.33,7.06,3.05c3.14,2.6,4.86,5.91,5.09,9.97c0.09,1.61,0.02,3.22,0.02,5.02
		c0.67,0.03,1.21,0.08,1.76,0.08c4.89,0.01,9.78-0.04,14.66,0.01c6.76,0.07,11.84,3.99,13.56,10.5c0.35,1.34,0.45,2.78,0.46,4.17
		c0.05,5.68,0.03,11.36,0.02,17.04c-0.01,3.42-1.18,4.58-4.6,4.58c-1.66,0-3.32,0-5.21,0c0,0.75,0,1.41,0,2.06
		c0,28.18-0.02,56.37,0.02,84.55c0.01,5.5-1.47,10.37-5.45,14.31c-2.36,2.33-5.19,3.77-8.43,4.43c-0.29,0.06-0.56,0.2-0.84,0.3
		c-23.09,0-46.18,0-69.27,0c-2.72-0.68-5.39-1.46-7.68-3.19c-4.66-3.54-6.86-8.34-7.23-14.09c-0.05-0.83-0.04-1.67-0.04-2.5
		c0-27.91,0-55.81,0-83.72c0-0.66,0-1.33,0-2.15c-2.01,0-3.87,0.02-5.72,0c-2.73-0.03-4-1.29-4.01-4.04
		c-0.02-6.09-0.07-12.18,0.01-18.27c0.1-8.14,5.91-13.89,14.04-13.97c5.34-0.05,10.69-0.01,16.14-0.01c0.12-2.09,0.14-4.11,0.36-6.1
		c0.67-6,5.22-10.73,11.2-11.76c0.25-0.04,0.48-0.17,0.72-0.25C110.34,56.72,121.46,56.72,132.59,56.72z M73.32,111.2
		c0,0.54,0,0.91,0,1.27c0,28.49,0,56.98,0.01,85.48c0,0.98,0.09,1.98,0.24,2.95c0.87,5.45,4.93,9,10.45,9
		c21.31,0.02,42.63,0.04,63.94-0.04c1.65-0.01,3.46-0.41,4.92-1.17c4.38-2.28,5.67-6.32,5.66-10.99
		c-0.02-28.28-0.01-56.57-0.01-84.85c0-0.55-0.05-1.09-0.08-1.64C130.02,111.2,101.76,111.2,73.32,111.2z M63.66,104.16
		c34.97,0,69.78,0,104.58,0c0-5.62,0.15-11.13-0.1-16.63c-0.07-1.42-1.2-2.95-2.2-4.12c-1.33-1.55-3.31-1.74-5.3-1.74
		c-29.79,0.02-59.58,0.01-89.37,0.01c-0.52,0-1.04,0-1.56,0.04c-2.98,0.25-5.87,2.7-5.98,5.65C63.51,92.95,63.66,98.51,63.66,104.16
		z M93.94,74.73c14.73,0,29.31,0,43.99,0c0-1.6,0.06-3.1-0.01-4.6c-0.17-3.68-2.95-6.49-6.65-6.51c-10.19-0.06-20.37-0.06-30.56,0
		c-3.7,0.02-6.49,2.74-6.75,6.45C93.85,71.56,93.94,73.07,93.94,74.73z"/>
	<path d="M132.88,157.7c0-10.83,0-21.67,0-32.5c0-0.52-0.02-1.04,0.02-1.56c0.13-1.95,1.42-3.3,3.21-3.41
		c1.7-0.11,3.19,1.17,3.51,3.08c0.1,0.56,0.1,1.14,0.1,1.71c0,21.83,0,43.65,0,65.48c0,0.62-0.03,1.25-0.15,1.86
		c-0.36,1.83-1.79,2.98-3.5,2.86c-1.74-0.12-3-1.42-3.16-3.28c-0.04-0.52-0.03-1.04-0.03-1.56
		C132.88,179.47,132.88,168.58,132.88,157.7z"/>
	<path d="M92.24,157.67c0-11.04,0-22.08,0-33.13c0-2.43,0.75-3.64,2.49-4.15c1.85-0.54,3.78,0.58,4.15,2.47
		c0.14,0.71,0.16,1.45,0.16,2.17c0.01,21.77,0.01,43.54,0,65.31c0,0.62-0.02,1.25-0.11,1.87c-0.26,1.81-1.67,3.04-3.4,2.99
		c-1.73-0.05-3.06-1.32-3.25-3.17c-0.06-0.62-0.06-1.25-0.06-1.87C92.23,179.34,92.24,168.51,92.24,157.67z"/>
</g>
</svg>
