<?xml version="1.0" encoding="utf-8"?>
<!-- Generator: Adobe Illustrator 27.0.0, SVG Export Plug-In . SVG Version: 6.00 Build 0)  -->
<svg version="1.1" id="Layer_1" xmlns="http://www.w3.org/2000/svg" xmlns:xlink="http://www.w3.org/1999/xlink" x="0px" y="0px"
	 viewBox="0 0 1920 1080" style="enable-background:new 0 0 1920 1080;" xml:space="preserve">
<style type="text/css">
	.st0{fill:#A6F750;}
	.st1{fill:#181C23;}
</style>
<path class="st0" d="M1015.9,525.61H904.1c-4.86,0-8.8,3.94-8.8,8.8v3.52c0,4.86,3.94,8.8,8.8,8.8h101.46l8.99,7.65v-7.65h1.35
	c4.86,0,8.8-3.94,8.8-8.8v-3.52C1024.7,529.55,1020.76,525.61,1015.9,525.61z"/>
<g>
	<path class="st1" d="M909.08,540.75c-0.82,0-1.54-0.19-2.14-0.58c-0.6-0.39-1.07-0.92-1.4-1.6s-0.5-1.47-0.5-2.37
		c0-0.89,0.16-1.66,0.49-2.32c0.33-0.65,0.79-1.16,1.4-1.51c0.61-0.36,1.32-0.53,2.15-0.53c0.67,0,1.27,0.13,1.8,0.4
		s0.95,0.63,1.27,1.1c0.32,0.47,0.52,1,0.58,1.59h-2.14c-0.05-0.29-0.14-0.54-0.27-0.75c-0.13-0.21-0.31-0.38-0.53-0.5
		c-0.22-0.12-0.48-0.18-0.78-0.18c-0.35,0-0.65,0.09-0.91,0.26c-0.26,0.17-0.46,0.46-0.6,0.86c-0.14,0.4-0.21,0.94-0.21,1.61
		c0,1.02,0.16,1.76,0.47,2.2c0.31,0.44,0.73,0.67,1.26,0.67c0.3,0,0.56-0.07,0.78-0.22c0.22-0.14,0.39-0.34,0.53-0.58
		c0.13-0.24,0.22-0.5,0.27-0.79h2.14c-0.06,0.43-0.16,0.84-0.3,1.23s-0.36,0.74-0.63,1.04c-0.28,0.3-0.63,0.54-1.08,0.71
		C910.28,540.67,909.73,540.75,909.08,540.75z"/>
	<path class="st1" d="M919.3,540.75c-0.84,0-1.57-0.18-2.18-0.54c-0.61-0.36-1.09-0.88-1.43-1.54s-0.5-1.45-0.5-2.36
		c0-0.92,0.17-1.71,0.51-2.38c0.34-0.67,0.82-1.19,1.44-1.55c0.62-0.37,1.34-0.55,2.16-0.55c0.82,0,1.54,0.18,2.15,0.55
		c0.61,0.37,1.08,0.88,1.42,1.55c0.34,0.67,0.51,1.46,0.51,2.38c0,0.91-0.17,1.69-0.5,2.36s-0.8,1.18-1.42,1.54
		C920.86,540.57,920.14,540.75,919.3,540.75z M919.3,539.1c0.37,0,0.7-0.09,0.98-0.27s0.5-0.48,0.65-0.88
		c0.15-0.4,0.23-0.94,0.23-1.6c0-0.68-0.08-1.23-0.23-1.65c-0.16-0.42-0.37-0.72-0.65-0.91c-0.28-0.19-0.6-0.29-0.97-0.29
		c-0.37,0-0.7,0.1-0.98,0.29c-0.28,0.19-0.5,0.5-0.66,0.92c-0.16,0.42-0.24,0.97-0.24,1.65c0,0.66,0.08,1.2,0.24,1.6
		c0.16,0.4,0.38,0.7,0.66,0.88C918.61,539.01,918.93,539.1,919.3,539.1z"/>
	<path class="st1" d="M926.2,540.63v-8.68h2.05l3.67,5.29v-5.29h2.04v8.68h-1.84l-3.87-5.57v5.57H926.2z"/>
	<path class="st1" d="M937.12,540.63v-8.68h2.05l3.67,5.29v-5.29h2.04v8.68h-1.84l-3.87-5.57v5.57H937.12z"/>
	<path class="st1" d="M948.04,540.63v-8.68h6.19l-0.01,1.7h-4.12v1.77h3.51v1.67h-3.52v1.81l4.18,0.01v1.72H948.04z"/>
	<path class="st1" d="M960.76,540.75c-0.82,0-1.54-0.19-2.14-0.58c-0.6-0.39-1.07-0.92-1.4-1.6s-0.5-1.47-0.5-2.37
		c0-0.89,0.16-1.66,0.49-2.32c0.33-0.65,0.79-1.16,1.4-1.51c0.61-0.36,1.32-0.53,2.15-0.53c0.67,0,1.27,0.13,1.8,0.4
		c0.53,0.27,0.95,0.63,1.28,1.1c0.32,0.47,0.52,1,0.58,1.59h-2.14c-0.05-0.29-0.14-0.54-0.27-0.75s-0.31-0.38-0.53-0.5
		c-0.22-0.12-0.48-0.18-0.78-0.18c-0.35,0-0.65,0.09-0.91,0.26c-0.26,0.17-0.46,0.46-0.6,0.86c-0.14,0.4-0.21,0.94-0.21,1.61
		c0,1.02,0.16,1.76,0.47,2.2c0.31,0.44,0.73,0.67,1.26,0.67c0.3,0,0.56-0.07,0.78-0.22c0.22-0.14,0.39-0.34,0.53-0.58
		c0.13-0.24,0.22-0.5,0.27-0.79h2.14c-0.06,0.43-0.16,0.84-0.3,1.23c-0.15,0.39-0.36,0.74-0.63,1.04c-0.28,0.3-0.63,0.54-1.08,0.71
		C961.96,540.67,961.41,540.75,960.76,540.75z"/>
	<path class="st1" d="M968.98,540.63v-6.87h-2.54v-1.81h7.11v1.81h-2.52v6.87H968.98z"/>
</g>
<g>
	<g>
		<path class="st1" d="M987.55,539.75v1.07h-2.14c-0.07,0-0.15,0-0.22,0c-1.78,0-2.8-0.9-2.8-2.29c0-1.76,1.78-2.51,4.35-2.66
			c1.31-0.09,1.97-0.29,1.97-0.84c0-1.05-0.98-1.84-2.27-1.84c-0.05,0-1.25,0.01-1.25,0.01v-1.09h1.28c1.72,0,2.95,0.85,3.37,2.24
			c0.11,0.37,0.16,0.74,0.16,1.12v3.99h1.16v1.19l-2.28,0.02v-0.9L987.55,539.75l0-1.31h1.22v-2.02c-0.24,0.22-1.01,0.4-2.02,0.47
			c-2.15,0.15-3.04,0.64-3.04,1.58c0,0.84,0.64,1.29,1.7,1.29L987.55,539.75L987.55,539.75L987.55,539.75z"/>
		<path class="st1" d="M985.19,533.19h-1.1v1.09h1.1V533.19z"/>
		<path class="st1" d="M984.09,534.29h-1.1v1.09h1.1V534.29z"/>
		<path class="st1" d="M1000.31,528.79v11.85h-1.24v-1.6c-0.67,1.09-1.82,1.77-3.25,1.77c-2.38,0-4.17-1.87-4.17-4.34
			c0-2.47,1.79-4.34,4.17-4.34c0.13,0,2.57,0.02,2.57,0.02v1.2h-2.41c-1.68,0.02-2.97,1.36-2.97,3.12c0,1.76,1.3,3.12,3,3.12
			c0.94,0.01,1.83-0.44,2.39-1.2c0.37-0.52,0.57-1.15,0.56-1.79v-2.05h-0.56v-1.2h0.59v-4.56H1000.31L1000.31,528.79z"/>
		<path class="st1" d="M1004.08,537.02h-1.21v1.2h1.21V537.02z"/>
		<path class="st1" d="M1010.09,540.64l-2.28,0.02v-1.61c-0.66,1.07-2.08,1.78-3.68,1.78c-0.3,0-0.6-0.03-0.9-0.09
			c-0.99-0.22-1.69-1.1-1.69-2.12v-0.39h1.32v0.67c0,0.24,0.12,0.45,0.32,0.58c0.29,0.18,0.68,0.27,1.16,0.27
			c1.76,0,3.19-1.22,3.35-2.73h-3.62v-1.2h2.17c0.83,0,1.25-0.26,1.36-0.6c0.02-0.06,0.03-0.12,0.03-0.19c0-0.1-0.01-0.21-0.03-0.3
			c-0.08-0.4-0.29-0.75-0.61-1c-0.4-0.34-0.98-0.54-1.63-0.54c-1.34,0-2.27,0.74-2.5,1.98h-1.26c0.29-1.89,1.73-3.06,3.8-3.06
			c1.81,0,3.08,0.94,3.43,2.46c0.04,0.17,0.07,0.34,0.08,0.52c0.01,0.12,0.02,0.25,0.02,0.38v3.99h1.15V540.64z"/>
	</g>
</g>
</svg>
