<?xml version="1.0" encoding="utf-8"?>
<!-- Generator: Adobe Illustrator 27.0.0, SVG Export Plug-In . SVG Version: 6.00 Build 0)  -->
<svg version="1.1" id="Layer_1" xmlns="http://www.w3.org/2000/svg" xmlns:xlink="http://www.w3.org/1999/xlink" x="0px" y="0px"
	 viewBox="0 0 421.91 203.83" style="enable-background:new 0 0 421.91 203.83;" xml:space="preserve">
<g>
	<path d="M382.07,105.24c-1.66,6.34-3.96,12.3-8.29,17.45c-13.34,15.87-38.55,15.85-51.64-0.17c-17.12-20.95-5.73-51.19,20.96-55.65
		c17.19-2.87,34.6,9.36,38.29,26.9c0.15,0.73,0.45,1.43,0.68,2.15C382.07,99.03,382.07,102.14,382.07,105.24z"/>
	<path d="M211.67,134.58c-18.75-0.02-33.95-15.28-33.93-34.06c0.02-18.75,15.29-33.95,34.06-33.93
		c18.75,0.03,33.95,15.29,33.93,34.06C245.7,119.4,230.44,134.6,211.67,134.58z"/>
	<path d="M109.46,100.52c0.05,18.74-15.18,34.03-33.93,34.06c-18.69,0.03-34.09-15.28-34.12-33.93
		c-0.03-18.66,15.31-34.04,33.98-34.06C94.17,66.57,109.41,81.75,109.46,100.52z"/>
</g>
</svg>
