<?xml version="1.0" encoding="utf-8"?>
<!-- Generator: Adobe Illustrator 27.0.0, SVG Export Plug-In . SVG Version: 6.00 Build 0)  -->
<svg version="1.1" id="Layer_1" xmlns="http://www.w3.org/2000/svg" xmlns:xlink="http://www.w3.org/1999/xlink" x="0px" y="0px"
	 viewBox="0 0 1920 1080" style="enable-background:new 0 0 1920 1080;" xml:space="preserve">
<g>
	<path d="M136.4,156.57c-10.8,5.7-21.8,7.86-34.96,7.86c-32.21,0-59.51-23.57-59.51-61.28c0-40.46,28.09-75.42,71.69-75.42
		c34.18,0,57.16,23.96,57.16,56.76c0,29.46-16.5,46.75-34.96,46.75c-7.86,0-15.12-5.3-14.53-17.28h-0.79
		c-6.87,11.59-15.91,17.28-27.69,17.28c-11.39,0-21.21-9.23-21.21-24.75c0-24.35,19.25-46.55,46.55-46.55
		c8.45,0,15.91,1.77,21.02,4.12l-6.68,35.55c-2.95,14.93-0.59,21.8,5.89,22c10.02,0.2,21.21-13.16,21.21-35.94
		c0-28.48-17.09-48.91-47.53-48.91c-32.02,0-58.92,25.34-58.92,65.21c0,32.8,21.41,53.03,50.48,53.03c11.2,0,21.61-2.36,29.66-6.87
		L136.4,156.57z M125.6,71.72c-1.96-0.59-5.3-1.38-9.82-1.38c-17.28,0-31.23,16.3-31.23,35.35c0,8.64,4.32,14.93,12.96,14.93
		c11.39,0,21.8-14.53,23.96-26.71L125.6,71.72z"/>
</g>
</svg>
