<?xml version="1.0" encoding="utf-8"?>
<!-- Generator: Adobe Illustrator 27.0.0, SVG Export Plug-In . SVG Version: 6.00 Build 0)  -->
<svg version="1.1" id="Layer_1" xmlns="http://www.w3.org/2000/svg" xmlns:xlink="http://www.w3.org/1999/xlink" x="0px" y="0px"
	 viewBox="0 0 1920 1080" style="enable-background:new 0 0 1920 1080;" xml:space="preserve">
<g>
	<path d="M96.07,18.26c2.77,0,5.54,0,8.31,0c1.36,0.18,2.73,0.36,4.09,0.53c18.67,2.29,34.38,10.43,46.6,24.66
		c16.03,18.66,21.47,40.33,16.32,64.39c-3.47,16.22-11.89,29.64-24.65,40.26c-11.31,9.41-24.34,14.88-38.97,16.47
		c-14.54,1.58-28.34-1.02-41.33-7.68c-13.52-6.93-23.87-17.19-31.12-30.51c-4.66-8.56-7.48-17.72-8.36-27.45
		c-0.23-2.51-0.37-5.03-0.55-7.55c0-0.57,0-1.15,0-1.72c0.1-0.8,0.23-1.59,0.28-2.4c0.49-8.61,2.48-16.87,5.91-24.78
		C37.44,51.3,44.61,41.9,54.12,34.32c8.98-7.17,19.1-12.04,30.37-14.35C88.3,19.18,92.21,18.82,96.07,18.26z M146.04,139.81
		c19.03-17.77,26.72-47.46,15.44-74.17c-11.11-26.32-38.51-44.01-69.43-40.48c-28.03,3.21-51.87,24.24-57.77,53.16
		c-2.29,11.21-1.7,22.32,1.73,33.25c3.42,10.88,9.25,20.26,17.76,28.45c0.06-13.22,4.46-24.36,13.52-33.42
		c9.06-9.06,20.16-13.52,33.01-13.54C122.98,93.02,145.99,111.68,146.04,139.81z M99.79,158.48c14.27-0.12,27.2-4.24,38.81-12.45
		c0.43-0.3,0.85-0.97,0.84-1.46c-0.06-3.67,0.08-7.39-0.44-11c-1.71-12.02-7.76-21.45-18.03-27.91c-11.34-7.13-23.51-8.21-35.9-3.25
		c-11.98,4.8-19.72,13.72-23.39,26.13c-1.57,5.3-1.52,10.75-1.42,16.2c0.01,0.42,0.37,0.96,0.73,1.22
		C72.62,154.21,85.59,158.35,99.79,158.48z"/>
	<path d="M100,39.85c13.69,0.01,24.86,11.23,24.83,24.92C124.8,78.5,113.57,89.69,99.92,89.6c-13.67-0.09-24.76-11.21-24.77-24.85
		C75.13,51.05,86.32,39.84,100,39.85z M99.94,83.12c10.14,0.04,18.43-8.17,18.49-18.31c0.05-10.15-8.13-18.41-18.3-18.49
		c-10.21-0.08-18.53,8.16-18.56,18.38C81.54,74.83,89.76,83.07,99.94,83.12z"/>
</g>
</svg>
